<svg width="192" height="192" viewBox="0 0 192 192" fill="none" xmlns="http://www.w3.org/2000/svg">
<path d="M165.753 116.061C169.045 106.729 169.092 96.4062 165.942 87.0736C163.026 78.4009 157.806 70.6709 151.269 64.3078C144.639 57.8504 136.739 52.8542 128.133 49.4606C119.386 45.9727 109.935 44.1344 100.576 43.6631C91.1716 43.1917 81.5784 44.2287 72.5026 46.6797C63.4268 49.1306 54.6331 53.0899 46.921 58.5103C42.9708 61.2912 39.2559 64.4492 35.9641 68.0314C32.6723 71.6607 29.6627 75.7143 27.4996 80.1449C25.2424 84.8583 23.7846 89.9016 23.7376 95.1806C23.6906 100.271 24.9602 105.267 27.2645 109.745C31.8729 118.748 40.5726 125.158 50.1657 128.033C55.3384 129.588 60.8874 130.154 66.2953 129.918C71.9383 129.683 77.4403 128.504 82.9422 127.373C85.4816 126.855 88.0679 126.384 90.6543 126.007C90.2781 126.053 89.9019 126.101 89.5257 126.148C93.2877 125.63 97.0965 125.441 100.859 125.912C100.482 125.865 100.106 125.818 99.7304 125.771C101.376 126.007 103.022 126.384 104.574 127.043C104.245 126.902 103.916 126.761 103.539 126.619C104.526 127.043 105.467 127.609 106.36 128.269C106.079 128.033 105.796 127.845 105.514 127.609C106.172 128.127 106.784 128.693 107.301 129.4C107.066 129.117 106.878 128.834 106.643 128.552C107.066 129.117 107.396 129.73 107.677 130.343C107.536 130.013 107.396 129.683 107.254 129.306C107.583 130.107 107.819 131.003 107.912 131.851C107.866 131.474 107.819 131.097 107.771 130.72C108.383 135.245 107.019 139.817 108.335 144.294C109.135 147.075 110.969 149.621 113.65 150.893C117.224 152.543 121.08 152.071 124.795 151.459C130.485 150.516 136.034 148.301 140.971 145.425C145.956 142.503 150.611 138.779 154.514 134.537C159.499 129.117 163.308 122.942 165.753 116.061C166.129 115.071 165.848 113.657 165.33 112.762C164.813 111.866 163.779 111.018 162.791 110.782C160.393 110.216 158.37 111.536 157.524 113.751C157.242 114.553 156.959 115.307 156.63 116.061C156.772 115.731 156.913 115.401 157.053 115.024C155.408 118.842 153.292 122.471 150.752 125.771C150.988 125.488 151.175 125.205 151.411 124.922C148.589 128.552 145.298 131.851 141.676 134.679C141.959 134.443 142.241 134.255 142.523 134.019C139.043 136.706 135.234 139.015 131.143 140.76C131.472 140.618 131.801 140.476 132.177 140.335C128.698 141.796 125.03 142.833 121.268 143.352C121.644 143.305 122.02 143.257 122.396 143.21C120.797 143.399 119.151 143.587 117.553 143.399C117.929 143.446 118.305 143.493 118.681 143.541C118.07 143.446 117.505 143.305 116.895 143.069C117.224 143.21 117.553 143.352 117.929 143.493C117.505 143.305 117.082 143.069 116.706 142.739C116.988 142.975 117.27 143.163 117.553 143.399C117.176 143.069 116.8 142.739 116.518 142.362C116.753 142.644 116.941 142.928 117.176 143.21C116.847 142.786 116.612 142.315 116.377 141.796C116.518 142.126 116.659 142.456 116.8 142.833C116.471 142.032 116.283 141.183 116.142 140.335C116.189 140.712 116.236 141.089 116.283 141.466C115.954 138.686 116.33 135.952 116.33 133.171C116.33 128.882 115.06 124.546 111.627 121.717C104.104 115.59 93.4758 116.721 84.541 118.323C79.7444 119.172 74.9479 120.35 70.1043 121.01C70.4805 120.963 70.8567 120.916 71.2329 120.868C66.7185 121.481 62.11 121.576 57.5957 121.01C57.9718 121.057 58.3481 121.104 58.7242 121.152C55.1033 120.681 51.6234 119.738 48.2376 118.323C48.5668 118.465 48.896 118.606 49.2722 118.748C46.5918 117.616 44.0994 116.155 41.7482 114.364C42.0303 114.6 42.3125 114.788 42.5947 115.024C40.3844 113.327 38.4095 111.395 36.7165 109.179C36.9516 109.462 37.1397 109.745 37.3749 110.028C35.823 108.001 34.5063 105.786 33.5188 103.429C33.6599 103.759 33.801 104.089 33.9421 104.466C33.0486 102.345 32.4372 100.083 32.1081 97.8202C32.1551 98.1972 32.2021 98.5743 32.2492 98.9514C31.92 96.5946 31.92 94.2851 32.2492 91.9284C32.2021 92.3055 32.1551 92.6826 32.1081 93.0596C32.4842 90.2316 33.2837 87.5449 34.3652 84.9054C34.2242 85.2354 34.0831 85.5653 33.9421 85.9423C35.3528 82.643 37.2338 79.5321 39.4439 76.7041C39.2089 76.9869 39.0208 77.2697 38.7856 77.5525C42.0773 73.6875 45.6513 70.1525 49.6014 67.0887C49.3192 67.3244 49.0371 67.5129 48.755 67.7486C53.8337 63.8365 59.4766 60.5842 65.4489 58.0861C65.1197 58.2275 64.7905 58.3689 64.4143 58.5103C71.1859 55.6823 78.3337 53.7498 85.6226 52.76C85.2464 52.8071 84.8702 52.8542 84.494 52.9013C92.2061 51.8644 100.059 51.8644 107.819 52.9013C107.442 52.8542 107.066 52.8071 106.69 52.76C113.744 53.7026 120.75 55.4938 127.287 58.2747C126.958 58.1333 126.629 57.9918 126.252 57.8504C131.378 60.0658 136.222 62.8938 140.689 66.3346C140.407 66.0989 140.124 65.9104 139.843 65.6747C144.028 68.9269 147.79 72.6034 150.988 76.7983C150.752 76.5156 150.564 76.2327 150.329 75.9499C153.009 79.4379 155.267 83.2085 157.007 87.2621C156.866 86.9321 156.724 86.6022 156.584 86.2252C158.041 89.7602 159.123 93.4367 159.64 97.2074C159.593 96.8304 159.546 96.4533 159.499 96.0762C159.969 99.5641 159.969 103.099 159.499 106.587C159.546 106.21 159.593 105.833 159.64 105.456C159.264 108.331 158.559 111.112 157.571 113.846C156.819 115.967 158.418 118.606 160.533 119.125C162.932 119.596 164.954 118.323 165.753 116.061Z" fill="#DF6A6A"/>
<path fill-rule="evenodd" clip-rule="evenodd" d="M92.6212 45.4119C83.7532 51.16 83.7859 64.9936 92.5005 69.7719C94.8312 71.0498 97.6084 71.774 100.36 72.5915C101.586 72.9557 102.807 73.3393 103.981 73.7981C106.626 70.3693 108.907 66.8254 105.226 62.9374C97.1845 60.8665 82.9057 55.4806 92.6212 45.4119Z" fill="#DF6A6A"/>
<path fill-rule="evenodd" clip-rule="evenodd" d="M105.842 52.4943C106.562 49.6517 107.804 47.2882 108.524 44.4456C102.264 43.5514 98.6875 43.5516 95.1038 44.0283C93.8206 44.4295 92.6533 44.9837 91.611 45.663C85.087 52.0812 90.1518 57.0361 96.0067 59.6488C90.641 53.3889 96.0047 51.6 105.842 52.4943Z" fill="#DF6A6A"/>
<path fill-rule="evenodd" clip-rule="evenodd" d="M91.6128 45.6632C85.0888 52.0814 90.1536 57.0363 96.0085 59.649C95.9142 59.5305 95.1138 58.7547 94.2195 56.9661C92.431 56.0719 86.171 53.389 91.6128 45.6632Z" fill="black" fill-opacity="0.2"/>
<path fill-rule="evenodd" clip-rule="evenodd" d="M102.905 73.4054C103.266 73.5308 103.623 73.6622 103.976 73.8011C106.622 70.3723 108.903 66.8284 105.222 62.9404C107.906 66.4621 105.429 70.5141 102.905 73.4054Z" fill="black" fill-opacity="0.2"/>
<path fill-rule="evenodd" clip-rule="evenodd" d="M103.977 73.7996C98.7613 79.5766 93.5248 82.5988 87.3997 87.3107C89.5207 88.0409 91.642 88.772 93.7631 89.5023C86.7103 96.8975 79.6581 104.292 72.6062 111.687C85.0386 104.256 97.4703 96.8269 109.903 89.3965C108.253 88.3678 106.602 87.3391 104.951 86.3107C112.448 79.1551 121.049 66.8033 100.481 61.4376C111.212 64.2371 106.623 70.3707 103.977 73.7996Z" fill="#DF6A6A"/>
</svg>
