<svg width="24" height="24" viewBox="0 0 24 24" fill="none" xmlns="http://www.w3.org/2000/svg">
<path d="M23.2774 15.1703C23.8111 13.6575 23.8188 11.9843 23.308 10.4715C22.8354 9.06564 21.9893 7.81263 20.9297 6.78119C19.855 5.73446 18.5744 4.92458 17.1794 4.37448C15.7615 3.80909 14.2294 3.51112 12.7124 3.43471C11.1879 3.35831 9.63292 3.5264 8.16176 3.9237C6.69058 4.32099 5.26514 4.96278 4.01502 5.84142C3.37471 6.2922 2.77253 6.8041 2.23893 7.38477C1.70535 7.97308 1.2175 8.63015 0.866854 9.34834C0.500966 10.1124 0.264663 10.9299 0.25704 11.7856C0.249418 12.6108 0.45523 13.4206 0.828741 14.1465C1.57576 15.6058 2.98596 16.6448 4.54098 17.111C5.37947 17.363 6.27895 17.4547 7.15556 17.4165C8.07028 17.3784 8.96213 17.1873 9.85399 17.0039C10.2656 16.9199 10.6849 16.8436 11.1041 16.7824C11.0431 16.79 10.9821 16.7977 10.9212 16.8053C11.531 16.7213 12.1484 16.6907 12.7582 16.7671C12.6972 16.7594 12.6362 16.7519 12.5753 16.7442C12.842 16.7824 13.1088 16.8436 13.3604 16.9505C13.3071 16.9276 13.2537 16.9047 13.1927 16.8817C13.3528 16.9505 13.5052 17.0422 13.65 17.1491C13.6043 17.111 13.5586 17.0804 13.5129 17.0422C13.6196 17.1262 13.7187 17.2179 13.8025 17.3325C13.7644 17.2867 13.7339 17.2408 13.6958 17.195C13.7644 17.2867 13.8178 17.3859 13.8635 17.4853C13.8406 17.4318 13.8178 17.3784 13.7949 17.3172C13.8483 17.4471 13.8864 17.5923 13.9016 17.7298C13.8941 17.6687 13.8864 17.6075 13.8787 17.5464C13.9778 18.28 13.7568 19.021 13.9702 19.7468C14.0999 20.1976 14.3971 20.6103 14.8316 20.8165C15.4109 21.0839 16.036 21.0075 16.6382 20.9082C17.5606 20.7554 18.46 20.3963 19.2603 19.9302C20.0683 19.4565 20.823 18.8529 21.4556 18.1652C22.2636 17.2867 22.8812 16.2857 23.2774 15.1703C23.3385 15.0098 23.2928 14.7806 23.2089 14.6355C23.1251 14.4903 22.9574 14.3528 22.7973 14.3146C22.4086 14.2229 22.0807 14.4368 21.9435 14.7959C21.8978 14.9258 21.852 15.048 21.7987 15.1703C21.8216 15.1168 21.8445 15.0633 21.8673 15.0022C21.6006 15.621 21.2575 16.2094 20.8459 16.7442C20.884 16.6983 20.9145 16.6525 20.9526 16.6066C20.4952 17.195 19.9617 17.7298 19.3747 18.1883C19.4205 18.15 19.4662 18.1195 19.5119 18.0812C18.9479 18.5168 18.3304 18.8911 17.6672 19.1739C17.7206 19.1509 17.7739 19.128 17.8349 19.1051C17.2709 19.3419 16.6763 19.51 16.0665 19.5941C16.1275 19.5864 16.1884 19.5787 16.2494 19.5711C15.9902 19.6016 15.7234 19.6322 15.4643 19.6016C15.5253 19.6093 15.5863 19.617 15.6472 19.6247C15.5482 19.6093 15.4566 19.5864 15.3576 19.5482C15.4109 19.5711 15.4643 19.5941 15.5253 19.617C15.4566 19.5864 15.388 19.5482 15.327 19.4947C15.3728 19.533 15.4185 19.5635 15.4643 19.6016C15.4033 19.5482 15.3422 19.4947 15.2966 19.4336C15.3347 19.4794 15.3651 19.5253 15.4033 19.5711C15.3499 19.5024 15.3118 19.4259 15.2737 19.3419C15.2966 19.3954 15.3195 19.4488 15.3422 19.5099C15.2889 19.3801 15.2585 19.2425 15.2356 19.1051C15.2432 19.1662 15.2508 19.2273 15.2585 19.2884C15.2051 18.8377 15.2661 18.3945 15.2661 17.9437C15.2661 17.2484 15.0602 16.5456 14.5038 16.0871C13.2842 15.0939 11.5615 15.2772 10.1132 15.537C9.33564 15.6746 8.55813 15.8655 7.77299 15.9725C7.83398 15.9649 7.89495 15.9572 7.95594 15.9495C7.22416 16.0489 6.47714 16.0642 5.74537 15.9725C5.80634 15.9801 5.86733 15.9878 5.9283 15.9954C5.34136 15.9191 4.77728 15.7663 4.22845 15.537C4.28181 15.56 4.33517 15.5829 4.39615 15.6058C3.96166 15.4224 3.55766 15.1856 3.17653 14.8952C3.22225 14.9334 3.26799 14.964 3.31373 15.0022C2.95546 14.7271 2.63532 14.4139 2.36089 14.0548C2.39901 14.1006 2.4295 14.1465 2.46762 14.1923C2.21606 13.8638 2.00263 13.5047 1.84255 13.1227C1.86542 13.1762 1.88829 13.2296 1.91116 13.2907C1.76633 12.9469 1.66723 12.5802 1.61388 12.2135C1.6215 12.2746 1.62913 12.3357 1.63675 12.3968C1.58339 12.0148 1.58339 11.6404 1.63675 11.2584C1.62913 11.3195 1.6215 11.3807 1.61388 11.4418C1.67485 10.9834 1.80444 10.5479 1.97976 10.12C1.95689 10.1735 1.93402 10.227 1.91116 10.2881C2.13984 9.75327 2.44475 9.24901 2.80301 8.79059C2.7649 8.83643 2.73441 8.88228 2.69629 8.92812C3.22988 8.30161 3.8092 7.72859 4.44951 7.23197C4.40377 7.27016 4.35803 7.30073 4.3123 7.33893C5.13555 6.70478 6.05027 6.1776 7.01835 5.77266C6.96499 5.79557 6.91163 5.8185 6.85065 5.84142C7.94832 5.38301 9.10696 5.06974 10.2885 4.9093C10.2275 4.91693 10.1665 4.92458 10.1055 4.93222C11.3556 4.76414 12.6287 4.76414 13.8864 4.93222C13.8254 4.92458 13.7644 4.91693 13.7035 4.9093C14.8469 5.06211 15.9826 5.35244 17.0422 5.80322C16.9888 5.7803 16.9355 5.75737 16.8745 5.73446C17.7054 6.09356 18.4905 6.55197 19.2147 7.10972C19.1689 7.07152 19.1231 7.04096 19.0774 7.00276C19.7559 7.52993 20.3656 8.12589 20.884 8.80587C20.8459 8.76004 20.8153 8.71419 20.7772 8.66834C21.2117 9.23373 21.5777 9.84495 21.8597 10.502C21.8368 10.4485 21.8139 10.3951 21.7911 10.3339C22.0274 10.907 22.2028 11.5029 22.2865 12.1141C22.279 12.053 22.2713 11.9919 22.2636 11.9308C22.3399 12.4962 22.3399 13.0692 22.2636 13.6346C22.2713 13.5734 22.279 13.5123 22.2865 13.4512C22.2255 13.9173 22.1113 14.368 21.9512 14.8112C21.8293 15.155 22.0884 15.5829 22.4313 15.6669C22.8202 15.7433 23.1479 15.537 23.2774 15.1703Z" fill="#1D2742"/>
<path fill-rule="evenodd" clip-rule="evenodd" d="M11.4762 3.69247C10.1842 4.52994 10.189 6.54544 11.4587 7.24163C11.7982 7.42781 12.2029 7.53332 12.6038 7.65243C12.7823 7.7055 12.9602 7.76138 13.1313 7.82823C13.5167 7.32866 13.8491 6.81234 13.3127 6.24587C12.1411 5.94414 10.0607 5.15944 11.4762 3.69247Z" fill="#1D2742"/>
<path fill-rule="evenodd" clip-rule="evenodd" d="M13.403 4.72442C13.5079 4.31026 13.6888 3.96592 13.7938 3.55176C12.8818 3.42148 12.3606 3.4215 11.8385 3.49096C11.6515 3.54941 11.4815 3.63015 11.3296 3.72913C10.3791 4.66424 11.117 5.38614 11.97 5.76681C11.1883 4.85476 11.9698 4.59413 13.403 4.72442Z" fill="#1D2742"/>
<path fill-rule="evenodd" clip-rule="evenodd" d="M11.3297 3.7288C10.3792 4.6639 11.1171 5.38581 11.9701 5.76647C11.9564 5.74921 11.8398 5.63617 11.7095 5.37559C11.4489 5.2453 10.5369 4.85442 11.3297 3.7288Z" fill="black" fill-opacity="0.2"/>
<path fill-rule="evenodd" clip-rule="evenodd" d="M12.9747 7.77075C13.0273 7.78903 13.0793 7.80817 13.1308 7.82841C13.5162 7.32884 13.8486 6.81251 13.3122 6.24605C13.7033 6.75914 13.3424 7.34951 12.9747 7.77075Z" fill="black" fill-opacity="0.2"/>
<path fill-rule="evenodd" clip-rule="evenodd" d="M13.1311 7.82826C12.3711 8.66995 11.6082 9.11027 10.7158 9.79677C11.0248 9.90317 11.3339 10.0097 11.6429 10.1161C10.6154 11.1935 9.58789 12.2708 8.56045 13.3482C10.3718 12.2657 12.183 11.1833 13.9944 10.1007C13.754 9.95079 13.5136 9.80092 13.273 9.65108C14.3653 8.60854 15.6184 6.80892 12.6216 6.02716C14.1852 6.43504 13.5166 7.32869 13.1311 7.82826Z" fill="#1D2742"/>
</svg>
