<svg width="25" height="24" viewBox="0 0 25 24" fill="none" xmlns="http://www.w3.org/2000/svg">
<g id="clipboard-text">
<g id="vuesax/linear/clipboard-text">
<g id="clipboard-text_2">
<path id="Vector" d="M8.5 12.2H15.5" stroke="white" stroke-width="1.5" stroke-miterlimit="10" stroke-linecap="round" stroke-linejoin="round"/>
<path id="Vector_2" d="M8.5 16.2H12.88" stroke="white" stroke-width="1.5" stroke-miterlimit="10" stroke-linecap="round" stroke-linejoin="round"/>
<path id="Vector_3" d="M10.5 6H14.5C16.5 6 16.5 5 16.5 4C16.5 2 15.5 2 14.5 2H10.5C9.5 2 8.5 2 8.5 4C8.5 6 9.5 6 10.5 6Z" stroke="white" stroke-width="1.5" stroke-miterlimit="10" stroke-linecap="round" stroke-linejoin="round"/>
<path id="Vector_4" d="M16.5 4.02002C19.83 4.20002 21.5 5.43002 21.5 10V12M13.625 22H9.5C4.5 22 3.5 20 3.5 16V10C3.5 5.44002 5.17 4.20002 8.5 4.02002" stroke="white" stroke-width="1.5" stroke-miterlimit="10" stroke-linecap="round" stroke-linejoin="round"/>
<path id="Vector_5" d="M17.1411 19.1295H18.3089V21.8503C18.3089 22.2474 18.811 22.4459 19.0679 22.1423L21.9289 18.8843C22.2792 18.4872 22.1274 18.1603 21.6019 18.1603H20.4342V15.4394C20.4342 15.0424 19.932 14.8439 19.6751 15.1475L16.8142 18.4055C16.4638 18.8025 16.6156 19.1295 17.1411 19.1295Z" stroke="white" stroke-width="1.5" stroke-miterlimit="10" stroke-linecap="round" stroke-linejoin="round"/>
</g>
</g>
</g>
</svg>
