<svg width="25" height="24" viewBox="0 0 25 24" fill="none" xmlns="http://www.w3.org/2000/svg">
<g id="clipboard-text">
<g id="vuesax/bold/clipboard-text">
<g id="clipboard-text_2">
<path id="Vector" d="M14.8498 2H10.1498C9.10977 2 8.25977 2.84 8.25977 3.88V4.82C8.25977 5.86 9.09977 6.7 10.1398 6.7H14.8498C15.8898 6.7 16.7298 5.86 16.7298 4.82V3.88C16.7398 2.84 15.8898 2 14.8498 2Z" fill="#DF6A6A"/>
<path id="Vector_2" d="M17.7391 4.81998C17.7391 6.40998 16.4391 7.70998 14.8491 7.70998H10.1491C8.55906 7.70998 7.25906 6.40998 7.25906 4.81998C7.25906 4.25998 6.65906 3.90998 6.15906 4.16998C4.74906 4.91998 3.78906 6.40998 3.78906 8.11998V17.53C3.78906 19.99 5.79906 22 8.25906 22H12.882C13.6253 22 14.1345 21.1976 14.0038 20.4658C13.4788 17.5257 14.8969 13.5933 20.134 13.4734C20.7134 13.4601 21.2091 13.0078 21.2091 12.4282V8.11998C21.2091 6.40998 20.2491 4.91998 18.8391 4.16998C18.3391 3.90998 17.7391 4.25998 17.7391 4.81998ZM11.8791 16.95H8.49906C8.08906 16.95 7.74906 16.61 7.74906 16.2C7.74906 15.79 8.08906 15.45 8.49906 15.45H11.8791C12.2891 15.45 12.6291 15.79 12.6291 16.2C12.6291 16.61 12.2891 16.95 11.8791 16.95ZM15.4991 12.95H8.49906C8.08906 12.95 7.74906 12.61 7.74906 12.2C7.74906 11.79 8.08906 11.45 8.49906 11.45H15.4991C15.9091 11.45 16.2491 11.79 16.2491 12.2C16.2491 12.61 15.9091 12.95 15.4991 12.95Z" fill="#DF6A6A"/>
<path id="Subtract" fill-rule="evenodd" clip-rule="evenodd" d="M15.5 19C15.5 16.79 17.29 15 19.5 15C21.71 15 23.5 16.79 23.5 19C23.5 19.75 23.29 20.46 22.92 21.06C22.23 22.22 20.96 23 19.5 23C18.04 23 16.77 22.22 16.08 21.06C15.71 20.46 15.5 19.75 15.5 19ZM18.8679 19.4301H18.1807C17.8714 19.4301 17.7821 19.2377 17.9883 19.004L19.6718 17.0868C19.823 16.9081 20.1185 17.0249 20.1185 17.2586V18.8597H20.8057C21.1149 18.8597 21.2043 19.0521 20.9981 19.2858L19.3145 21.203C19.1633 21.3816 18.8679 21.2648 18.8679 21.0312V19.4301Z" fill="#DF6A6A"/>
</g>
</g>
</g>
</svg>
