<svg width="24" height="24" viewBox="0 0 24 24" fill="none" xmlns="http://www.w3.org/2000/svg">
<path d="M15.7128 16.7735L7.22748 8.28826C6.93757 7.99834 6.93757 7.51751 7.22748 7.2276C7.5174 6.93768 7.99823 6.93768 8.28814 7.2276L16.7734 15.7129C17.0633 16.0028 17.0633 16.4836 16.7734 16.7735C16.4835 17.0635 16.0027 17.0635 15.7128 16.7735Z" fill="#000E41"/>
<path d="M7.22658 16.7735C6.93666 16.4836 6.93666 16.0028 7.22658 15.7129L15.7119 7.2276C16.0018 6.93768 16.4826 6.93768 16.7725 7.2276C17.0624 7.51751 17.0624 7.99834 16.7725 8.28826L8.28724 16.7735C7.99732 17.0635 7.51649 17.0635 7.22658 16.7735Z" fill="#000E41"/>
</svg>
