<svg width="81" height="82" viewBox="0 0 81 82" fill="none" xmlns="http://www.w3.org/2000/svg">
<path d="M69.978 32.5841C71.3692 28.6401 71.3892 24.2779 70.0577 20.334C68.8256 16.6689 66.6197 13.4022 63.8573 10.7132C61.0555 7.9843 57.7168 5.87291 54.08 4.43875C50.3836 2.96476 46.3893 2.18792 42.4344 1.98873C38.46 1.78954 34.4059 2.22776 30.5705 3.26354C26.7351 4.29932 23.0189 5.97249 19.7597 8.26316C18.0904 9.43837 16.5205 10.7729 15.1294 12.2868C13.7383 13.8205 12.4664 15.5335 11.5523 17.4059C10.5984 19.3978 9.98232 21.5291 9.96245 23.76C9.94257 25.9112 10.4791 28.0226 11.4529 29.9149C13.4004 33.7194 17.0769 36.4283 21.1309 37.6435C23.3169 38.3007 25.6619 38.5397 27.9473 38.4401C30.332 38.3407 32.6571 37.8426 34.9823 37.3645C36.0554 37.1455 37.1484 36.9464 38.2414 36.787C38.0824 36.8067 37.9234 36.8267 37.7644 36.8467C39.3543 36.6277 40.9639 36.548 42.5538 36.747C42.3947 36.727 42.2357 36.7074 42.0769 36.6874C42.7722 36.787 43.4678 36.9464 44.1238 37.2251C43.9847 37.1655 43.8456 37.1058 43.6866 37.0458C44.1038 37.2251 44.5013 37.4642 44.8787 37.7429C44.7597 37.6435 44.6403 37.5639 44.5212 37.4642C44.7994 37.6832 45.0578 37.9223 45.2762 38.221C45.1769 38.1016 45.0975 37.982 44.9981 37.8626C45.1769 38.1016 45.3162 38.3604 45.4353 38.6194C45.3756 38.4801 45.3162 38.3407 45.2565 38.1813C45.3956 38.5197 45.495 38.8985 45.5347 39.2569C45.515 39.0975 45.495 38.9382 45.475 38.7788C45.7334 40.6912 45.1572 42.6232 45.7134 44.5153C46.0515 45.6905 46.8265 46.7664 47.9593 47.3042C49.4695 48.0013 51.0992 47.802 52.6691 47.5432C55.0738 47.1448 57.4187 46.2086 59.5052 44.9934C61.6117 43.7585 63.5792 42.1848 65.2285 40.3921C67.335 38.1016 68.9449 35.4921 69.978 32.5841C70.1371 32.1657 70.018 31.5682 69.7993 31.1897C69.5809 30.8113 69.1437 30.4527 68.7262 30.3531C67.7128 30.1141 66.8581 30.6718 66.5003 31.608C66.3813 31.9466 66.2619 32.2654 66.1228 32.5841C66.1825 32.4446 66.2422 32.3052 66.3016 32.1458C65.6063 33.7591 64.7119 35.2931 63.6388 36.6874C63.7382 36.5677 63.8176 36.4483 63.917 36.3286C62.7245 37.8626 61.3336 39.2569 59.8033 40.4521C59.9227 40.3524 60.0418 40.2728 60.1611 40.1731C58.6905 41.3086 57.0809 42.2845 55.3519 43.0216C55.4909 42.9616 55.63 42.902 55.7891 42.8423C54.3185 43.4597 52.7685 43.8978 51.1786 44.1172C51.3376 44.0972 51.4964 44.0772 51.6554 44.0572C50.9798 44.1369 50.2842 44.2166 49.6086 44.1369C49.7677 44.1569 49.9267 44.1769 50.0855 44.1969C49.8274 44.1569 49.5886 44.0972 49.3305 43.9975C49.4695 44.0572 49.6086 44.1172 49.7677 44.1769C49.5886 44.0972 49.4099 43.9975 49.2508 43.8582C49.3702 43.9578 49.4892 44.0375 49.6086 44.1369C49.4496 43.9975 49.2905 43.8582 49.1714 43.6988C49.2708 43.8182 49.3502 43.9378 49.4496 44.0572C49.3105 43.8781 49.2111 43.6788 49.1117 43.4597C49.1714 43.5991 49.2311 43.7385 49.2905 43.8978C49.1514 43.5594 49.0721 43.2007 49.0124 42.8423C49.0324 43.0016 49.0521 43.161 49.0721 43.3204C48.933 42.1451 49.0921 40.9899 49.0921 39.8147C49.0921 38.002 48.5552 36.1696 47.1046 34.9743C43.925 32.3849 39.4338 32.8629 35.6579 33.5401C33.6309 33.8988 31.6039 34.3966 29.557 34.6756C29.716 34.6556 29.8749 34.6356 30.0339 34.6156C28.1261 34.8747 26.1786 34.9147 24.2708 34.6756C24.4298 34.6953 24.5888 34.7153 24.7478 34.7353C23.2176 34.5363 21.747 34.1378 20.3161 33.5401C20.4553 33.6001 20.5944 33.6597 20.7534 33.7194C19.6206 33.2413 18.5674 32.6239 17.5737 31.867C17.6929 31.9666 17.8122 32.0463 17.9314 32.1458C16.9974 31.4288 16.1628 30.6121 15.4473 29.6759C15.5467 29.7954 15.6262 29.9149 15.7256 30.0344C15.0697 29.1779 14.5133 28.2418 14.096 27.2458C14.1556 27.3852 14.2152 27.5247 14.2748 27.684C13.8973 26.7877 13.6389 25.8316 13.4998 24.8755C13.5197 25.0348 13.5396 25.1942 13.5594 25.3535C13.4203 24.3576 13.4203 23.3816 13.5594 22.3856C13.5396 22.545 13.5197 22.7043 13.4998 22.8637C13.6588 21.6685 13.9966 20.5332 14.4537 19.4177C14.3941 19.5572 14.3344 19.6966 14.2748 19.8559C14.871 18.4616 15.6659 17.147 16.5999 15.9518C16.5006 16.0713 16.4211 16.1909 16.3217 16.3104C17.7128 14.677 19.2231 13.1831 20.8925 11.8884C20.7732 11.988 20.654 12.0677 20.5348 12.1673C22.681 10.514 25.0657 9.1396 27.5896 8.08389C27.4505 8.14364 27.3114 8.20341 27.1524 8.26316C30.0141 7.06805 33.0347 6.25135 36.115 5.83307C35.956 5.85297 35.797 5.87291 35.6381 5.89281C38.8972 5.45462 42.216 5.45462 45.495 5.89281C45.3359 5.87291 45.1769 5.85297 45.0181 5.83307C47.999 6.23145 50.9598 6.98837 53.7222 8.16357C53.5832 8.10383 53.4441 8.04405 53.2851 7.9843C55.4513 8.92049 57.4981 10.1156 59.3861 11.5697C59.2668 11.4701 59.1474 11.3904 59.0283 11.2908C60.797 12.6652 62.3867 14.2189 63.7382 15.9917C63.6388 15.8722 63.5592 15.7526 63.4598 15.6331C64.5926 17.1071 65.5466 18.7006 66.2819 20.4137C66.2222 20.2742 66.1625 20.1348 66.1031 19.9754C66.7191 21.4693 67.1762 23.023 67.3947 24.6165C67.375 24.4572 67.355 24.2978 67.335 24.1385C67.5337 25.6125 67.5337 27.1064 67.335 28.5804C67.355 28.421 67.375 28.2617 67.3947 28.1023C67.2356 29.3174 66.9378 30.4926 66.5203 31.6479C66.2025 32.5442 66.8781 33.6597 67.7722 33.8788C68.7859 34.0778 69.6402 33.5401 69.978 32.5841Z" fill="#DF6A6A"/>
<path fill-rule="evenodd" clip-rule="evenodd" d="M39.07 2.72823C35.3224 5.15735 35.3362 11.0034 39.019 13.0228C40.0039 13.5628 41.1776 13.8688 42.3405 14.2143C42.8584 14.3682 43.3743 14.5303 43.8705 14.7242C44.9884 13.2752 45.9525 11.7776 44.3967 10.1345C40.9984 9.25932 34.9642 6.98324 39.07 2.72823Z" fill="#DF6A6A"/>
<path fill-rule="evenodd" clip-rule="evenodd" d="M44.6576 5.72122C44.962 4.51993 45.4868 3.52114 45.7912 2.31985C43.1458 1.94197 41.6342 1.94202 40.1197 2.14349C39.5775 2.31304 39.0842 2.54723 38.6437 2.83433C35.8866 5.54665 38.027 7.64058 40.5013 8.74472C38.2338 6.09928 40.5004 5.3433 44.6576 5.72122Z" fill="#DF6A6A"/>
<path fill-rule="evenodd" clip-rule="evenodd" d="M38.6443 2.83445C35.8872 5.54677 38.0276 7.64069 40.5019 8.74483C40.462 8.69476 40.1238 8.36689 39.7459 7.61105C38.99 7.23313 36.3446 6.09937 38.6443 2.83445Z" fill="black" fill-opacity="0.2"/>
<path fill-rule="evenodd" clip-rule="evenodd" d="M43.4163 14.5583C43.5688 14.6113 43.7196 14.6668 43.869 14.7256C44.987 13.2765 45.951 11.7789 44.3952 10.1358C45.5296 11.6241 44.4827 13.3365 43.4163 14.5583Z" fill="black" fill-opacity="0.2"/>
<path fill-rule="evenodd" clip-rule="evenodd" d="M43.8697 14.7248C41.6654 17.1662 39.4525 18.4433 36.864 20.4346C37.7603 20.7432 38.6568 21.0522 39.5531 21.3608C36.5727 24.486 33.5924 27.6107 30.6123 30.7358C35.8662 27.5958 41.1198 24.4561 46.3737 21.3161C45.6764 20.8813 44.979 20.4466 44.2813 20.012C47.4495 16.988 51.0842 11.7682 42.392 9.50064C46.927 10.6837 44.9877 13.2758 43.8697 14.7248Z" fill="#DF6A6A"/>
<path d="M5.76807 64.4438V74.5557C5.76807 75.2764 5.58789 75.9355 5.22754 76.5332C4.87598 77.1309 4.40137 77.6055 3.80371 77.957C3.21484 78.3174 2.55566 78.4976 1.82617 78.4976H0.982422V64.4438H5.76807Z" fill="#DF6A6A"/>
<path d="M11.0415 75.3994C10.3208 75.3994 9.66162 75.2236 9.06396 74.8721C8.46631 74.5205 7.9873 74.0459 7.62695 73.4482C7.27539 72.8506 7.09961 72.1914 7.09961 71.4707V65.2876C7.09961 64.5581 7.27539 63.8989 7.62695 63.3101C7.9873 62.7124 8.46631 62.2378 9.06396 61.8862C9.66162 61.5347 10.3208 61.3589 11.0415 61.3589H11.8853V70.6138H12.584V75.3994H11.0415Z" fill="#DF6A6A"/>
<path d="M12.6763 60.1328L17.0269 55.7822L18.5034 57.272L14.166 61.6094L12.6763 60.1328ZM13.2827 69.2163V64.4438L19.4131 58.3135L20.0063 58.9199C20.5073 59.4297 20.8413 60.0142 21.0083 60.6733C21.1841 61.3325 21.1929 61.9917 21.0347 62.6509C20.8853 63.3101 20.5645 63.8989 20.0723 64.4175L20.0591 64.4307H29.5776C30.3071 64.4307 30.9663 64.6108 31.5552 64.9712C32.1528 65.3228 32.6274 65.7974 32.979 66.395C33.3306 66.9839 33.5063 67.6431 33.5063 68.3726V70.6138H34.2051V75.3994H32.6494C32.3418 75.3994 32.0605 75.3115 31.8057 75.1357C31.5508 74.9512 31.3706 74.7139 31.2651 74.4238H30.9619C30.8564 74.7139 30.6763 74.9512 30.4214 75.1357C30.1665 75.3115 29.8853 75.3994 29.5776 75.3994H11.9248V70.6138H28.7207V69.2163H13.2827Z" fill="#DF6A6A"/>
<path d="M33.5459 75.3994V70.6138H34.9038V64.4438H39.7026V71.4707C39.7026 72.1914 39.5225 72.8506 39.1621 73.4482C38.8105 74.0459 38.3359 74.5205 37.7383 74.8721C37.1494 75.2236 36.4902 75.3994 35.7607 75.3994H33.5459ZM37.29 62.9541C36.8242 62.9541 36.4243 62.7871 36.0903 62.4531C35.7563 62.1191 35.5894 61.7192 35.5894 61.2534V61.2271C35.5894 60.7612 35.7563 60.3613 36.0903 60.0273C36.4243 59.6934 36.8242 59.5264 37.29 59.5264H37.3164C37.7822 59.5264 38.1821 59.6934 38.5161 60.0273C38.8501 60.3613 39.0171 60.7612 39.0171 61.2271V61.2534C39.0171 61.7192 38.8501 62.1191 38.5161 62.4531C38.1821 62.7871 37.7822 62.9541 37.3164 62.9541H37.29Z" fill="#DF6A6A"/>
<path d="M45.8198 76.7837H55.0747V81.5693H44.9629C44.2422 81.5693 43.583 81.3936 42.9854 81.042C42.3965 80.6904 41.9219 80.2202 41.5615 79.6313C41.21 79.0513 41.0342 78.4053 41.0342 77.6934V74.4897C41.0342 73.5669 41.3286 72.7539 41.9175 72.0508C42.5063 71.3477 43.2402 70.8994 44.1191 70.7061V68.2012C44.1191 67.5156 44.2949 66.8872 44.6465 66.3159C45.0068 65.7446 45.4814 65.2876 46.0703 64.9448C46.668 64.6021 47.3271 64.4307 48.0479 64.4307H55.0747V69.2163H48.9048V70.6138H55.0747V75.3994H45.8198V76.7837Z" fill="#DF6A6A"/>
<path d="M56.4062 64.4438H61.1919V70.6138H61.8906V75.3994H61.0996C60.9062 76.2871 60.4492 77.0254 59.7285 77.6143C59.0166 78.2031 58.1904 78.4976 57.25 78.4976H56.4062V64.4438Z" fill="#DF6A6A"/>
<path d="M61.2314 75.3994V70.6138H62.5894V64.4307H76.0762C76.7793 64.4307 77.4297 64.6021 78.0273 64.9448C78.625 65.2788 79.104 65.7227 79.4644 66.2764C79.8335 66.8301 80.0181 67.4321 80.0181 68.0825V71.3389C80.0181 72.0947 79.8423 72.7803 79.4907 73.3955C79.1479 74.0107 78.6777 74.4985 78.0801 74.8589C77.4824 75.2192 76.8145 75.3994 76.0762 75.3994H61.2314ZM75.2324 70.6138V69.2295H67.3882V70.6138H75.2324Z" fill="#DF6A6A"/>
</svg>
