<svg width="24" height="24" viewBox="0 0 24 24" fill="none" xmlns="http://www.w3.org/2000/svg">
<g id="double-tick-svgrepo-com 1">
<path id="Vector" d="M4.83068 11.4884C4.5495 11.2072 4.09362 11.2072 3.81244 11.4884C3.53127 11.7696 3.53127 12.2254 3.81244 12.5066L4.83068 11.4884ZM8.16156 15.8375L7.65244 16.3466C7.93362 16.6278 8.3895 16.6278 8.67068 16.3466L8.16156 15.8375ZM16.3506 8.66661C16.6318 8.38544 16.6318 7.92956 16.3506 7.64838C16.0695 7.36721 15.6137 7.36721 15.3325 7.64838L16.3506 8.66661ZM8.67068 11.4884C8.3895 11.2072 7.93362 11.2072 7.65244 11.4884C7.37127 11.7696 7.37127 12.2254 7.65244 12.5066L8.67068 11.4884ZM12.0016 15.8375L11.4925 16.3466C11.7737 16.6278 12.2295 16.6278 12.5106 16.3466L12.0016 15.8375ZM20.1906 8.66661C20.4718 8.38544 20.4718 7.92956 20.1906 7.64838C19.9095 7.36721 19.4537 7.36721 19.1725 7.64838L20.1906 8.66661ZM3.81244 12.5066L7.65244 16.3466L8.67068 15.3284L4.83068 11.4884L3.81244 12.5066ZM8.67068 16.3466L16.3506 8.66661L15.3325 7.64838L7.65244 15.3284L8.67068 16.3466ZM7.65244 12.5066L11.4925 16.3466L12.5106 15.3284L8.67068 11.4884L7.65244 12.5066ZM12.5106 16.3466L20.1906 8.66661L19.1725 7.64838L11.4925 15.3284L12.5106 16.3466Z" fill="#1D2742"/>
</g>
</svg>
