<svg width="18" height="18" viewBox="0 0 18 18" fill="none" xmlns="http://www.w3.org/2000/svg">
<path fill-rule="evenodd" clip-rule="evenodd" d="M8.07406 0.694396C8.41906 0.694396 8.69906 0.974396 8.69906 1.3194C8.69906 1.6644 8.41906 1.9444 8.07406 1.9444H4.95823C2.8049 1.9444 1.41406 3.4194 1.41406 5.7019V12.6302C1.41406 14.9127 2.8049 16.3877 4.95823 16.3877H12.3116C14.4649 16.3877 15.8566 14.9127 15.8566 12.6302V9.27356C15.8566 8.92856 16.1366 8.64856 16.4816 8.64856C16.8266 8.64856 17.1066 8.92856 17.1066 9.27356V12.6302C17.1066 15.6252 15.1791 17.6377 12.3116 17.6377H4.95823C2.09073 17.6377 0.164062 15.6252 0.164062 12.6302V5.7019C0.164062 2.7069 2.09073 0.694396 4.95823 0.694396H8.07406ZM15.3321 1.42656L16.3462 2.44073C16.8404 2.93406 17.1121 3.5899 17.1112 4.28823C17.1112 4.98656 16.8396 5.64156 16.3462 6.13406L10.0887 12.3916C9.62956 12.8507 9.0179 13.1041 8.3679 13.1041H5.24623C5.0779 13.1041 4.91623 13.0357 4.79873 12.9149C4.68123 12.7949 4.61706 12.6324 4.62123 12.4632L4.69956 9.31406C4.7154 8.6874 4.9679 8.09823 5.41123 7.65406H5.41206L11.6396 1.42656C12.6579 0.409896 14.3137 0.409896 15.3321 1.42656ZM11.1266 3.70656L6.2954 8.53823C6.07956 8.75406 5.95706 9.04073 5.94956 9.3449L5.88706 11.8541H8.3679C8.68456 11.8541 8.98123 11.7316 9.2054 11.5074L14.0657 6.64573L11.1266 3.70656ZM12.5229 2.31073L12.0099 2.8224L14.9491 5.7624L15.4629 5.2499C15.7196 4.99323 15.8612 4.65156 15.8612 4.28823C15.8612 3.92406 15.7196 3.58156 15.4629 3.3249L14.4487 2.31073C13.9179 1.78156 13.0546 1.78156 12.5229 2.31073Z" fill="#DF6A6A"/>
</svg>
