<svg width="24" height="24" viewBox="0 0 24 24" fill="none" xmlns="http://www.w3.org/2000/svg">
<path d="M12 2C6.49 2 2 6.49 2 12C2 17.51 6.49 22 12 22C17.51 22 22 17.51 22 12C22 6.49 17.51 2 12 2ZM11.25 11C11.25 10.59 11.59 10.25 12 10.25C12.41 10.25 12.75 10.59 12.75 11V16C12.75 16.41 12.41 16.75 12 16.75C11.59 16.75 11.25 16.41 11.25 16V11ZM12.92 8.88C12.87 9.01 12.8 9.11 12.71 9.21C12.61 9.3 12.5 9.37 12.38 9.42C12.26 9.47 12.13 9.5 12 9.5C11.87 9.5 11.74 9.47 11.62 9.42C11.5 9.37 11.39 9.3 11.29 9.21C11.2 9.11 11.13 9.01 11.08 8.88C11.03 8.76 11 8.63 11 8.5C11 8.37 11.03 8.24 11.08 8.12C11.13 8 11.2 7.89 11.29 7.79C11.39 7.7 11.5 7.63 11.62 7.58C11.86 7.48 12.14 7.48 12.38 7.58C12.5 7.63 12.61 7.7 12.71 7.79C12.8 7.89 12.87 8 12.92 8.12C12.97 8.24 13 8.37 13 8.5C13 8.63 12.97 8.76 12.92 8.88Z" fill="#FD305B"/>
</svg>
