<svg width="25" height="24" viewBox="0 0 25 24" fill="none" xmlns="http://www.w3.org/2000/svg">
<g id="home-2">
<g id="vuesax/linear/home-2">
<g id="home-2_2">
<path id="Vector" d="M9.52 2.83992L4.13 7.03992C3.23 7.73992 2.5 9.22992 2.5 10.3599V17.7699C2.5 20.0899 4.39 21.9899 6.71 21.9899H18.29C20.61 21.9899 22.5 20.0899 22.5 17.7799V10.4999C22.5 9.28992 21.69 7.73992 20.7 7.04992L14.52 2.71992C13.12 1.73992 10.87 1.78992 9.52 2.83992Z" stroke="white" stroke-width="1.5" stroke-linecap="round" stroke-linejoin="round"/>
<path id="Vector_2" d="M9.56376 14H10.8393V17.3592C10.8393 17.8493 11.4515 18.1927 11.7321 17.8179L14.8571 13.7956C15.2398 13.3054 15.0739 12.9017 14.5 12.9017H13.2244V9.54252C13.2244 9.05234 12.676 8.80725 12.3954 9.1821L9.20662 13.1061C8.82397 13.5963 8.98978 14 9.56376 14Z" stroke="white" stroke-width="1.5" stroke-miterlimit="10" stroke-linecap="round" stroke-linejoin="round"/>
</g>
</g>
</g>
</svg>
