<svg width="375" height="201" viewBox="0 0 375 201" fill="none" xmlns="http://www.w3.org/2000/svg">
<g filter="url(#filter0_d_1_1766)">
<path d="M226.499 90.5403C228.34 85.3224 228.366 79.551 226.605 74.3331C224.975 69.484 222.056 65.1621 218.401 61.6045C214.695 57.994 210.277 55.2006 205.466 53.3032C200.575 51.353 195.291 50.3253 190.058 50.0617C184.8 49.7982 179.436 50.378 174.362 51.7483C169.288 53.1187 164.371 55.3324 160.059 58.363C157.85 59.9178 155.773 61.6835 153.933 63.6864C152.092 65.7155 150.41 67.9819 149.2 70.4591C147.938 73.0944 147.123 75.9142 147.097 78.8658C147.071 81.7119 147.78 84.5054 149.069 87.0089C151.645 92.0424 156.51 95.6264 161.873 97.2341C164.765 98.1036 167.868 98.4198 170.891 98.288C174.046 98.1565 177.123 97.4975 180.199 96.865C181.619 96.5752 183.065 96.3118 184.511 96.101C184.3 96.127 184.09 96.1535 183.88 96.1799C185.983 95.8901 188.113 95.7847 190.216 96.048C190.006 96.0216 189.795 95.9955 189.585 95.9691C190.505 96.101 191.426 96.3118 192.293 96.6806C192.109 96.6016 191.925 96.5227 191.715 96.4433C192.267 96.6806 192.793 96.9968 193.292 97.3656C193.135 97.2341 192.977 97.1287 192.819 96.9968C193.187 97.2867 193.529 97.6029 193.818 97.9982C193.687 97.8402 193.582 97.6819 193.45 97.524C193.687 97.8402 193.871 98.1825 194.029 98.5253C193.95 98.3409 193.871 98.1565 193.792 97.9456C193.976 98.3934 194.108 98.8944 194.16 99.3686C194.134 99.1578 194.108 98.947 194.081 98.7361C194.423 101.266 193.661 103.822 194.397 106.326C194.844 107.881 195.869 109.304 197.368 110.015C199.366 110.938 201.522 110.674 203.599 110.332C206.781 109.805 209.883 108.566 212.644 106.958C215.43 105.324 218.033 103.242 220.216 100.871C223.003 97.8402 225.133 94.3878 226.499 90.5403C226.71 89.9869 226.552 89.1963 226.263 88.6956C225.974 88.1948 225.396 87.7205 224.843 87.5887C223.502 87.2725 222.372 88.0104 221.898 89.249C221.741 89.697 221.583 90.1187 221.399 90.5403C221.478 90.3558 221.557 90.1713 221.635 89.9605C220.715 92.0949 219.532 94.1244 218.112 95.9691C218.244 95.8107 218.349 95.6528 218.48 95.4945C216.903 97.524 215.063 99.3686 213.038 100.95C213.196 100.818 213.353 100.713 213.511 100.581C211.566 102.083 209.436 103.374 207.149 104.35C207.333 104.27 207.516 104.191 207.727 104.112C205.781 104.929 203.731 105.509 201.627 105.799C201.838 105.773 202.048 105.746 202.258 105.72C201.364 105.825 200.444 105.93 199.55 105.825C199.76 105.851 199.971 105.878 200.181 105.904C199.839 105.851 199.524 105.773 199.182 105.641C199.366 105.72 199.55 105.799 199.76 105.878C199.524 105.773 199.287 105.641 199.077 105.456C199.235 105.588 199.392 105.694 199.55 105.825C199.34 105.641 199.129 105.456 198.972 105.245C199.103 105.403 199.208 105.562 199.34 105.72C199.156 105.483 199.024 105.219 198.893 104.929C198.972 105.114 199.051 105.298 199.129 105.509C198.945 105.061 198.84 104.586 198.761 104.112C198.788 104.323 198.814 104.534 198.84 104.745C198.656 103.19 198.867 101.661 198.867 100.107C198.867 97.7083 198.156 95.284 196.237 93.7027C192.03 90.2767 186.088 90.9092 181.093 91.8051C178.411 92.2797 175.729 92.9383 173.021 93.3075C173.231 93.281 173.442 93.2546 173.652 93.2281C171.128 93.5708 168.551 93.6237 166.027 93.3075C166.238 93.3335 166.448 93.36 166.658 93.3865C164.634 93.1231 162.688 92.596 160.795 91.8051C160.979 91.8845 161.163 91.9635 161.374 92.0424C159.875 91.4099 158.481 90.593 157.167 89.5916C157.325 89.7233 157.482 89.8288 157.64 89.9605C156.404 89.0118 155.3 87.9313 154.354 86.6927C154.485 86.8508 154.59 87.0089 154.722 87.1671C153.854 86.0339 153.118 84.7953 152.566 83.4776C152.645 83.6621 152.723 83.8466 152.802 84.0574C152.303 82.8715 151.961 81.6065 151.777 80.3416C151.803 80.5524 151.83 80.7632 151.856 80.9741C151.672 79.6564 151.672 78.3651 151.856 77.0474C151.83 77.2583 151.803 77.4691 151.777 77.6799C151.987 76.0987 152.434 74.5966 153.039 73.1208C152.96 73.3053 152.881 73.4898 152.802 73.7006C153.591 71.8558 154.643 70.1165 155.879 68.5353C155.747 68.6935 155.642 68.8516 155.51 69.0097C157.351 66.8487 159.349 64.8723 161.558 63.1593C161.4 63.291 161.242 63.3965 161.084 63.5282C163.924 61.3409 167.079 59.5225 170.418 58.1258C170.234 58.2049 170.05 58.2839 169.84 58.363C173.626 56.7818 177.622 55.7013 181.698 55.1479C181.487 55.1742 181.277 55.2006 181.067 55.2269C185.378 54.6472 189.769 54.6472 194.108 55.2269C193.897 55.2006 193.687 55.1742 193.477 55.1479C197.42 55.675 201.338 56.6764 204.992 58.2312C204.808 58.1522 204.624 58.0731 204.414 57.994C207.28 59.2327 209.988 60.8138 212.486 62.7376C212.328 62.6059 212.17 62.5005 212.013 62.3687C214.353 64.187 216.456 66.2426 218.244 68.588C218.112 68.4299 218.007 68.2718 217.876 68.1137C219.374 70.0638 220.636 72.1721 221.609 74.4385C221.53 74.254 221.451 74.0695 221.373 73.8587C222.188 75.8352 222.793 77.8907 223.082 79.999C223.055 79.7882 223.029 79.5773 223.003 79.3665C223.265 81.3166 223.265 83.2932 223.003 85.2433C223.029 85.0325 223.055 84.8216 223.082 84.6108C222.871 86.2184 222.477 87.7732 221.925 89.3017C221.504 90.4876 222.398 91.9635 223.581 92.2533C224.922 92.5166 226.052 91.8051 226.499 90.5403Z" fill="url(#paint0_linear_1_1766)"/>
</g>
<path fill-rule="evenodd" clip-rule="evenodd" d="M185.608 51.04C180.65 54.2538 180.668 61.9884 185.54 64.66C186.843 65.3745 188.396 65.7794 189.935 66.2365C190.62 66.4401 191.303 66.6546 191.959 66.9111C193.438 64.994 194.714 63.0126 192.655 60.8388C188.159 59.6809 180.176 56.6696 185.608 51.04Z" fill="url(#paint1_linear_1_1766)"/>
<path fill-rule="evenodd" clip-rule="evenodd" d="M193.001 54.9998C193.404 53.4105 194.098 52.089 194.501 50.4997C191.001 49.9998 189.001 49.9998 186.998 50.2664C186.28 50.4907 185.628 50.8005 185.045 51.1804C181.397 54.7689 184.229 57.5392 187.502 59C184.502 55.5 187.501 54.4998 193.001 54.9998Z" fill="url(#paint2_linear_1_1766)"/>
<path fill-rule="evenodd" clip-rule="evenodd" d="M185.044 51.1804C181.397 54.7689 184.229 57.5392 187.502 59C187.449 58.9338 187.002 58.5 186.502 57.5C185.502 57 182.002 55.5 185.044 51.1804Z" fill="black" fill-opacity="0.2"/>
<path fill-rule="evenodd" clip-rule="evenodd" d="M191.358 66.6914C191.56 66.7616 191.76 66.835 191.957 66.9127C193.436 64.9956 194.712 63.0142 192.654 60.8404C194.154 62.8094 192.769 65.0749 191.358 66.6914Z" fill="black" fill-opacity="0.2"/>
<g filter="url(#filter1_d_1_1766)">
<path fill-rule="evenodd" clip-rule="evenodd" d="M191.958 66.9117C189.042 70.1417 186.114 71.8315 182.689 74.4659C183.875 74.8742 185.061 75.283 186.247 75.6913C182.304 79.826 178.361 83.9602 174.418 88.0948C181.369 83.9404 188.32 79.7866 195.271 75.6321C194.348 75.057 193.426 74.4819 192.503 73.9068C196.694 69.906 201.503 63 190.003 60C196.003 61.5652 193.437 64.9946 191.958 66.9117Z" fill="url(#paint3_linear_1_1766)"/>
</g>
<g filter="url(#filter2_d_1_1766)">
<path d="M152.768 135.31V145.421C152.768 146.142 152.588 146.801 152.228 147.399C151.876 147.997 151.401 148.471 150.804 148.823C150.215 149.183 149.556 149.363 148.826 149.363H147.982V135.31H152.768Z" fill="url(#paint4_linear_1_1766)"/>
<path d="M158.042 146.265C157.321 146.265 156.662 146.089 156.064 145.738C155.466 145.386 154.987 144.912 154.627 144.314C154.275 143.716 154.1 143.057 154.1 142.336V136.153C154.1 135.424 154.275 134.765 154.627 134.176C154.987 133.578 155.466 133.104 156.064 132.752C156.662 132.4 157.321 132.225 158.042 132.225H158.885V141.479H159.584V146.265H158.042Z" fill="url(#paint5_linear_1_1766)"/>
<path d="M159.676 130.999L164.027 126.648L165.503 128.138L161.166 132.475L159.676 130.999ZM160.283 140.082V135.31L166.413 129.179L167.006 129.786C167.507 130.295 167.841 130.88 168.008 131.539C168.184 132.198 168.193 132.857 168.035 133.517C167.885 134.176 167.564 134.765 167.072 135.283L167.059 135.296H176.578C177.307 135.296 177.966 135.477 178.555 135.837C179.153 136.188 179.627 136.663 179.979 137.261C180.331 137.85 180.506 138.509 180.506 139.238V141.479H181.205V146.265H179.649C179.342 146.265 179.061 146.177 178.806 146.001C178.551 145.817 178.371 145.58 178.265 145.29H177.962C177.856 145.58 177.676 145.817 177.421 146.001C177.167 146.177 176.885 146.265 176.578 146.265H158.925V141.479H175.721V140.082H160.283Z" fill="url(#paint6_linear_1_1766)"/>
<path d="M180.546 146.265V141.479H181.904V135.31H186.703V142.336C186.703 143.057 186.522 143.716 186.162 144.314C185.811 144.912 185.336 145.386 184.738 145.738C184.149 146.089 183.49 146.265 182.761 146.265H180.546ZM184.29 133.82C183.824 133.82 183.424 133.653 183.09 133.319C182.756 132.985 182.589 132.585 182.589 132.119V132.093C182.589 131.627 182.756 131.227 183.09 130.893C183.424 130.559 183.824 130.392 184.29 130.392H184.316C184.782 130.392 185.182 130.559 185.516 130.893C185.85 131.227 186.017 131.627 186.017 132.093V132.119C186.017 132.585 185.85 132.985 185.516 133.319C185.182 133.653 184.782 133.82 184.316 133.82H184.29Z" fill="url(#paint7_linear_1_1766)"/>
<path d="M192.82 147.649H202.075V152.435H191.963C191.242 152.435 190.583 152.259 189.985 151.908C189.396 151.556 188.922 151.086 188.562 150.497C188.21 149.917 188.034 149.271 188.034 148.559V145.355C188.034 144.433 188.329 143.62 188.917 142.917C189.506 142.213 190.24 141.765 191.119 141.572V139.067C191.119 138.381 191.295 137.753 191.646 137.182C192.007 136.61 192.481 136.153 193.07 135.811C193.668 135.468 194.327 135.296 195.048 135.296H202.075V140.082H195.905V141.479H202.075V146.265H192.82V147.649Z" fill="url(#paint8_linear_1_1766)"/>
<path d="M203.406 135.31H208.192V141.479H208.891V146.265H208.1C207.906 147.153 207.449 147.891 206.729 148.48C206.017 149.069 205.19 149.363 204.25 149.363H203.406V135.31Z" fill="url(#paint9_linear_1_1766)"/>
<path d="M208.231 146.265V141.479H209.589V135.296H223.076C223.779 135.296 224.43 135.468 225.027 135.811C225.625 136.145 226.104 136.588 226.464 137.142C226.833 137.696 227.018 138.298 227.018 138.948V142.205C227.018 142.96 226.842 143.646 226.491 144.261C226.148 144.876 225.678 145.364 225.08 145.725C224.482 146.085 223.814 146.265 223.076 146.265H208.231ZM222.232 141.479V140.095H214.388V141.479H222.232Z" fill="url(#paint10_linear_1_1766)"/>
</g>
<defs>
<filter id="filter0_d_1_1766" x="141.096" y="43.9998" width="92.8071" height="72.6482" filterUnits="userSpaceOnUse" color-interpolation-filters="sRGB">
<feFlood flood-opacity="0" result="BackgroundImageFix"/>
<feColorMatrix in="SourceAlpha" type="matrix" values="0 0 0 0 0 0 0 0 0 0 0 0 0 0 0 0 0 0 127 0" result="hardAlpha"/>
<feOffset/>
<feGaussianBlur stdDeviation="3"/>
<feComposite in2="hardAlpha" operator="out"/>
<feColorMatrix type="matrix" values="0 0 0 0 0 0 0 0 0 0 0 0 0 0 0 0 0 0 0.25 0"/>
<feBlend mode="normal" in2="BackgroundImageFix" result="effect1_dropShadow_1_1766"/>
<feBlend mode="normal" in="SourceGraphic" in2="effect1_dropShadow_1_1766" result="shape"/>
</filter>
<filter id="filter1_d_1_1766" x="170.418" y="56" width="30.75" height="36.0947" filterUnits="userSpaceOnUse" color-interpolation-filters="sRGB">
<feFlood flood-opacity="0" result="BackgroundImageFix"/>
<feColorMatrix in="SourceAlpha" type="matrix" values="0 0 0 0 0 0 0 0 0 0 0 0 0 0 0 0 0 0 127 0" result="hardAlpha"/>
<feOffset/>
<feGaussianBlur stdDeviation="2"/>
<feComposite in2="hardAlpha" operator="out"/>
<feColorMatrix type="matrix" values="0 0 0 0 0 0 0 0 0 0 0 0 0 0 0 0 0 0 0.25 0"/>
<feBlend mode="normal" in2="BackgroundImageFix" result="effect1_dropShadow_1_1766"/>
<feBlend mode="normal" in="SourceGraphic" in2="effect1_dropShadow_1_1766" result="shape"/>
</filter>
<filter id="filter2_d_1_1766" x="139.882" y="118.548" width="95.2356" height="41.9871" filterUnits="userSpaceOnUse" color-interpolation-filters="sRGB">
<feFlood flood-opacity="0" result="BackgroundImageFix"/>
<feColorMatrix in="SourceAlpha" type="matrix" values="0 0 0 0 0 0 0 0 0 0 0 0 0 0 0 0 0 0 127 0" result="hardAlpha"/>
<feOffset/>
<feGaussianBlur stdDeviation="4.05"/>
<feComposite in2="hardAlpha" operator="out"/>
<feColorMatrix type="matrix" values="0 0 0 0 0 0 0 0 0 0 0 0 0 0 0 0 0 0 0.25 0"/>
<feBlend mode="normal" in2="BackgroundImageFix" result="effect1_dropShadow_1_1766"/>
<feBlend mode="normal" in="SourceGraphic" in2="effect1_dropShadow_1_1766" result="shape"/>
</filter>
<linearGradient id="paint0_linear_1_1766" x1="159" y1="56" x2="257.5" y2="139.5" gradientUnits="userSpaceOnUse">
<stop stop-color="#674188"/>
<stop offset="0.770899" stop-color="#DF6A6A"/>
<stop offset="1" stop-color="#FED8D8"/>
</linearGradient>
<linearGradient id="paint1_linear_1_1766" x1="179.561" y1="56.6897" x2="196.503" y2="69" gradientUnits="userSpaceOnUse">
<stop stop-color="#DF6A6A"/>
<stop offset="1" stop-color="#694287"/>
</linearGradient>
<linearGradient id="paint2_linear_1_1766" x1="172.002" y1="56.5" x2="184.982" y2="65.2047" gradientUnits="userSpaceOnUse">
<stop stop-color="#673434"/>
<stop offset="1" stop-color="#864B80"/>
</linearGradient>
<linearGradient id="paint3_linear_1_1766" x1="196.003" y1="68" x2="179.503" y2="86.5" gradientUnits="userSpaceOnUse">
<stop stop-color="#DF6A6A"/>
<stop offset="1" stop-color="#6A4287"/>
</linearGradient>
<linearGradient id="paint4_linear_1_1766" x1="147.982" y1="139.542" x2="227.018" y2="139.542" gradientUnits="userSpaceOnUse">
<stop stop-color="#D77173"/>
<stop offset="1" stop-color="#734585"/>
</linearGradient>
<linearGradient id="paint5_linear_1_1766" x1="147.982" y1="139.542" x2="227.018" y2="139.542" gradientUnits="userSpaceOnUse">
<stop stop-color="#D77173"/>
<stop offset="1" stop-color="#734585"/>
</linearGradient>
<linearGradient id="paint6_linear_1_1766" x1="147.982" y1="139.542" x2="227.018" y2="139.542" gradientUnits="userSpaceOnUse">
<stop stop-color="#D77173"/>
<stop offset="1" stop-color="#734585"/>
</linearGradient>
<linearGradient id="paint7_linear_1_1766" x1="147.982" y1="139.542" x2="227.018" y2="139.542" gradientUnits="userSpaceOnUse">
<stop stop-color="#D77173"/>
<stop offset="1" stop-color="#734585"/>
</linearGradient>
<linearGradient id="paint8_linear_1_1766" x1="147.982" y1="139.542" x2="227.018" y2="139.542" gradientUnits="userSpaceOnUse">
<stop stop-color="#D77173"/>
<stop offset="1" stop-color="#734585"/>
</linearGradient>
<linearGradient id="paint9_linear_1_1766" x1="147.982" y1="139.542" x2="227.018" y2="139.542" gradientUnits="userSpaceOnUse">
<stop stop-color="#D77173"/>
<stop offset="1" stop-color="#734585"/>
</linearGradient>
<linearGradient id="paint10_linear_1_1766" x1="147.982" y1="139.542" x2="227.018" y2="139.542" gradientUnits="userSpaceOnUse">
<stop stop-color="#D77173"/>
<stop offset="1" stop-color="#734585"/>
</linearGradient>
</defs>
</svg>
