<svg width="32" height="32" viewBox="0 0 32 32" fill="none" xmlns="http://www.w3.org/2000/svg">
<g id="Solid/Pill">
<g id="Vector">
<path d="M15.0551 5.11615C18.3209 1.85028 23.616 1.85028 26.8818 5.11615C30.1477 8.38201 30.1477 13.677 26.8818 16.9429L22.8541 20.9706L11.0358 9.15237L15.0551 5.11615Z" fill="white" fill-opacity="0.8"/>
<path fill-rule="evenodd" clip-rule="evenodd" d="M9.14843 11.0228L5.11395 15.0573C1.84808 18.3231 1.84808 23.6181 5.11395 26.884C8.37981 30.1499 13.6748 30.1499 16.9407 26.884L20.9724 22.8523L9.14843 11.0228ZM8.9207 19.9429C9.4414 19.4222 9.4414 18.578 8.9207 18.0573C8.4 17.5366 7.55578 17.5366 7.03508 18.0573C6.27884 18.8135 5.82101 19.7691 5.82101 20.8089C5.82101 21.8487 6.27884 22.8043 7.03508 23.5606C7.55578 24.0813 8.4 24.0813 8.9207 23.5606C9.4414 23.0399 9.4414 22.1956 8.9207 21.6749C8.57888 21.3331 8.48768 21.0289 8.48768 20.8089C8.48768 20.5889 8.57888 20.2847 8.9207 19.9429Z" fill="white" fill-opacity="0.8"/>
</g>
</g>
</svg>
