<svg width="13" height="13" viewBox="0 0 13 13" fill="none" xmlns="http://www.w3.org/2000/svg">
<g id="Solid/Pill">
<g id="Vector">
<path d="M6.36129 2.56501C7.58599 1.34031 9.57162 1.34031 10.7963 2.56501C12.021 3.78971 12.021 5.77534 10.7963 7.00004L9.28591 8.51045L4.85406 4.07859L6.36129 2.56501Z" fill="#00B099"/>
<path fill-rule="evenodd" clip-rule="evenodd" d="M4.1463 4.78L2.63337 6.29293C1.40867 7.51763 1.40867 9.50326 2.63337 10.728C3.85807 11.9527 5.8437 11.9527 7.0684 10.728L8.5803 9.21605L4.1463 4.78ZM4.0609 8.12504C4.25616 7.92978 4.25616 7.6132 4.0609 7.41794C3.86564 7.22267 3.54906 7.22267 3.35379 7.41794C3.0702 7.70153 2.89852 8.05987 2.89852 8.4498C2.89852 8.83973 3.0702 9.19807 3.35379 9.48167C3.54906 9.67693 3.86564 9.67693 4.0609 9.48167C4.25616 9.2864 4.25616 8.96982 4.0609 8.77456C3.93272 8.64638 3.89852 8.5323 3.89852 8.4498C3.89852 8.36731 3.93272 8.25323 4.0609 8.12504Z" fill="#00B099"/>
</g>
</g>
</svg>
