<svg width="24" height="25" viewBox="0 0 24 25" fill="none" xmlns="http://www.w3.org/2000/svg">
<path d="M15.5973 19.6481H17.4773C19.6573 19.6481 21.2473 17.2281 21.2473 15.1881C21.2338 14.5225 21.084 13.8667 20.807 13.2613C20.5301 12.6559 20.132 12.1136 19.6373 11.6681C18.8578 10.9964 17.8434 10.6619 16.8173 10.7381C16.7279 10.7478 16.6375 10.7396 16.5513 10.7142C16.4651 10.6887 16.3848 10.6463 16.315 10.5896C16.2453 10.5329 16.1875 10.4629 16.1449 10.3837C16.1024 10.3044 16.076 10.2176 16.0673 10.1281C15.6573 3.60811 5.89731 3.69811 5.74731 10.3981C5.7449 10.5349 5.70304 10.668 5.62675 10.7816C5.55047 10.8951 5.44302 10.9842 5.31731 11.0381C4.393 11.4959 3.64802 12.2492 3.20055 13.1786C2.75309 14.1079 2.62877 15.1601 2.84731 16.1681C2.97234 16.796 3.22847 17.3904 3.59895 17.9125C3.96944 18.4347 4.44594 18.8727 4.99731 19.1981C5.68846 19.5731 6.47342 19.7398 7.25731 19.6781H8.50731" stroke="#000E41" stroke-width="1.5" stroke-linecap="round" stroke-linejoin="round"/>
<path d="M12 19.6878V12.7578" stroke="#000E41" stroke-width="1.5" stroke-linecap="round" stroke-linejoin="round"/>
<path d="M9.82812 14.7616L11.9981 12.6016L14.1681 14.7616" stroke="#000E41" stroke-width="1.5" stroke-linecap="round" stroke-linejoin="round"/>
</svg>
